<?xml version="1.0" standalone="no"?>
<!DOCTYPE svg PUBLIC "-//W3C//DTD SVG 20010904//EN"
 "http://www.w3.org/TR/2001/REC-SVG-20010904/DTD/svg10.dtd">
<svg version="1.0" xmlns="http://www.w3.org/2000/svg"
 width="1120.000000pt" height="245.000000pt" viewBox="0 0 1120.000000 245.000000"
 preserveAspectRatio="xMidYMid meet">

<g transform="translate(0.000000,245.000000) scale(0.100000,-0.100000)"
fill="#000000" stroke="none">
<path d="M0 1225 l0 -1225 245 0 245 0 0 36 c0 50 71 124 120 124 73 0 130
-54 130 -124 l0 -36 462 0 462 0 27 26 c26 25 28 25 58 10 17 -9 31 -21 31
-26 0 -6 220 -10 607 -10 577 0 605 1 590 18 -15 17 -20 39 -18 79 3 54 73 71
116 28 29 -28 32 -65 9 -100 l-16 -25 465 0 466 0 25 25 c33 33 79 33 110 0
l23 -25 564 0 564 0 -3 45 c-5 51 9 75 43 75 44 0 69 -55 45 -101 -11 -19 -1
-19 563 -19 561 0 574 0 592 20 23 26 67 26 90 0 18 -20 31 -20 2046 -20 1613
0 2028 3 2032 13 3 9 9 9 26 -1 15 -9 85 -12 251 -12 l230 0 0 1225 0 1225
-882 0 c-761 -1 -886 -3 -902 -15 -25 -19 -52 -19 -60 0 -5 13 -113 15 -892
15 l-886 0 27 -32 c25 -29 27 -38 23 -101 -3 -63 -7 -72 -36 -98 -59 -53 -163
-36 -198 32 -23 45 -18 120 11 163 l24 36 -419 0 c-407 0 -421 -1 -440 -20
-11 -11 -31 -20 -43 -20 -13 0 -32 9 -42 20 -18 20 -31 20 -1290 20 l-1271 0
-22 -30 c-29 -39 -63 -39 -96 0 l-25 30 -1890 0 -1891 -1 0 -1224z m9300 1115
c6 -11 8 -31 4 -45 -11 -43 -64 -26 -64 20 0 42 41 60 60 25z m1445 6 c48 -20
75 -68 75 -133 0 -65 -12 -92 -54 -121 -88 -60 -196 7 -196 123 1 41 6 56 29
81 59 65 86 75 146 50z m-9963 -83 c22 -20 23 -51 1 -75 -20 -22 -31 -23 -55
-1 -22 20 -23 51 -1 75 20 22 31 23 55 1z m4503 -189 c33 -21 49 -83 42 -164
-4 -56 -9 -68 -36 -92 -54 -48 -120 -36 -163 29 -22 35 -24 138 -3 189 25 60
99 78 160 38z m-3529 -30 c16 -16 24 -37 24 -60 0 -39 -33 -94 -56 -94 -11 0
-12 -4 -4 -19 19 -37 12 -100 -15 -126 -32 -33 -65 -32 -98 3 -37 39 -37 96 0
136 23 25 26 36 24 91 -2 56 0 65 21 79 34 24 77 20 104 -10z m736 4 c14 -23
9 -105 -8 -122 -41 -41 -104 1 -104 70 0 56 21 78 68 70 20 -3 39 -11 44 -18z
m4193 -13 c48 -48 22 -145 -40 -145 -56 0 -88 107 -45 150 27 27 56 25 85 -5z
m-4548 -97 c13 -22 12 -42 -3 -65 -19 -29 -48 -29 -68 -1 -19 27 -20 50 -4 66
16 16 65 15 75 0z m4691 -117 c8 -5 12 -22 10 -42 -4 -45 -42 -54 -59 -15 -10
22 -9 29 6 46 20 22 24 23 43 11z m937 -31 c0 -31 -3 -35 -25 -35 -19 0 -26 6
-28 23 -5 36 5 54 30 50 19 -2 23 -9 23 -38z m829 -91 c22 -17 26 -28 26 -70
0 -40 -5 -55 -25 -74 -31 -32 -56 -31 -94 1 -27 22 -31 32 -31 74 0 41 4 52
26 69 15 12 37 21 49 21 12 0 34 -9 49 -21z m-5960 -27 c23 -38 3 -102 -33
-102 -10 0 -24 -7 -31 -15 -16 -19 -29 -19 -52 2 -28 26 -24 71 10 86 15 6 33
17 40 24 15 15 58 17 66 5z m7150 -35 c13 -10 17 -24 14 -62 -3 -44 -6 -51
-31 -60 -24 -8 -31 -6 -43 10 -19 26 -18 84 3 107 19 21 33 23 57 5z m-8477
-115 c7 -9 13 -37 13 -60 0 -33 -5 -48 -22 -63 -50 -41 -106 -10 -106 58 0 74
75 117 115 65z m7633 -40 c33 -27 33 -88 1 -113 -31 -24 -37 -24 -66 6 -31 30
-33 77 -5 105 25 25 41 25 70 2z m-2013 -24 c25 -35 -4 -89 -41 -75 -16 6 -23
66 -9 80 11 11 40 8 50 -5z m777 -167 c35 -39 -28 -105 -69 -71 -18 15 -20 61
-3 78 18 18 53 15 72 -7z m-5382 -28 c23 -20 23 -52 1 -69 -24 -18 -43 -17
-65 3 -22 20 -23 46 -2 67 20 21 43 20 66 -1z m507 -9 c25 -21 31 -33 31 -65
0 -45 -34 -89 -69 -89 -25 0 -81 64 -81 94 0 23 59 86 80 86 4 0 22 -12 39
-26z m6759 4 c18 -18 15 -94 -4 -112 -38 -38 -74 -12 -74 54 0 50 13 70 45 70
12 0 26 -5 33 -12z m-3207 -22 c25 -55 -22 -104 -71 -74 -23 15 -29 83 -7 91
33 14 68 6 78 -17z m1482 7 c41 -46 33 -111 -17 -142 -42 -26 -82 -27 -96 -2
-19 36 -12 112 12 138 26 28 78 31 101 6z m-4249 -54 c22 -10 32 -30 42 -79 5
-25 -33 -79 -61 -86 -32 -8 -72 17 -86 54 -16 39 0 94 31 109 31 16 43 16 74
2z m-2616 -126 c45 -28 65 -113 40 -170 -20 -44 -47 -63 -92 -63 -32 0 -47 7
-73 32 -30 29 -33 37 -33 93 0 56 3 64 33 92 49 46 73 49 125 16z m2626 -89
c10 -26 7 -69 -6 -82 -17 -17 -65 -15 -72 4 -8 21 -8 79 1 87 13 14 71 7 77
-9z m3520 -50 c21 -20 20 -43 -1 -66 -33 -37 -83 -13 -83 39 0 41 53 58 84 27z
m-4284 -33 c14 -28 12 -52 -7 -73 -20 -22 -41 -23 -65 -1 -20 18 -24 63 -6 81
19 19 66 15 78 -7z m2052 -55 c16 -23 12 -63 -7 -82 -45 -46 -102 40 -58 88
17 19 51 16 65 -6z m5658 -152 c0 -33 -2 -35 -27 -32 -47 5 -45 68 2 68 22 0
25 -4 25 -36z m-1922 -6 c31 -31 -1 -104 -36 -82 -29 19 -37 41 -24 68 12 28
40 34 60 14z m1182 -58 c31 -17 50 -64 50 -124 0 -44 -5 -60 -26 -85 -46 -56
-138 -50 -169 10 -8 15 -15 54 -15 86 0 52 3 60 35 93 29 30 42 36 70 34 19
-2 44 -8 55 -14z m-5978 -7 c57 -65 44 -192 -24 -233 -46 -28 -62 -25 -108 16
-39 36 -40 37 -40 106 0 62 3 73 27 99 24 25 36 29 79 29 36 0 55 -5 66 -17z
m-2434 -18 c42 -53 -9 -128 -57 -84 -26 25 -27 63 -1 89 26 26 34 25 58 -5z
m4637 -60 c48 -47 18 -145 -44 -145 -48 0 -71 25 -71 77 0 83 64 120 115 68z
m-187 -27 c7 -7 12 -26 12 -44 0 -34 -19 -49 -51 -39 -35 11 -20 95 16 95 6 0
16 -5 23 -12z m-1854 -24 c10 -26 7 -79 -6 -92 -17 -17 -44 -15 -62 4 -19 18
-21 75 -4 92 17 17 65 15 72 -4z m6989 -14 c15 -22 13 -96 -5 -117 -6 -8 -25
-13 -42 -11 -30 3 -31 4 -34 62 -2 32 -1 65 2 72 8 21 63 17 79 -6z m-293 -15
c20 -24 16 -106 -5 -122 -24 -17 -40 -17 -59 3 -19 19 -22 104 -4 122 17 17
53 15 68 -3z m-1932 -127 c3 -43 4 -45 34 -45 46 0 82 -45 74 -92 -7 -43 -28
-61 -72 -61 -43 0 -64 23 -64 71 0 21 -4 39 -9 39 -4 0 -20 11 -35 25 -53 49
-15 139 48 116 16 -6 22 -18 24 -53z m-4367 18 c1 -6 2 -24 4 -41 3 -31 -19
-65 -42 -65 -23 0 -53 39 -53 70 0 17 9 39 20 50 17 17 24 18 45 8 14 -6 25
-16 26 -22z m2666 -138 c32 -30 33 -102 1 -129 -70 -58 -161 30 -117 114 7 12
17 25 23 29 22 15 70 8 93 -14z"/>
</g>
</svg>
